<?xml version="1.0" encoding="utf-8"?>
<!-- Generator: Adobe Illustrator 27.0.0, SVG Export Plug-In . SVG Version: 6.00 Build 0)  -->
<svg version="1.1" id="Layer_1" xmlns="http://www.w3.org/2000/svg" xmlns:xlink="http://www.w3.org/1999/xlink" x="0px" y="0px"
	 width="450.2px" height="416.7px" viewBox="0 0 450.2 416.7" style="enable-background:new 0 0 450.2 416.7;" xml:space="preserve"
	>
<style type="text/css">
	.st0{fill:#FFFFFF;stroke:#5262ED;stroke-width:13;stroke-miterlimit:10;}
	.st1{fill:#5262ED;}
</style>
<circle class="st0" cx="225.1" cy="208.4" r="200.2"/>
<path class="st1" d="M236.1,190.4l78.5,78.3c-5.8,11.8-19.5,17.6-31.7,18c-20.9,0.6-32.4,15.8-57.9,39.7c-8,7-16.8,12.1-26.2,15.1
	c-10.4,3.6-21.4,4.2-32.3,2.6c-10.2-1.4-19.8-4.7-28.8-10.5c-2.7,6.7-9.1,11.4-17.1,11.4c-10,0-18.2-8.2-18.2-18.5
	c0-7.7,4.7-14.1,11.1-17c-16.5-26.5-15.3-61.2,8-86.8c8.2-9.1,15.4-16.1,21.5-22.6c9.1-9.7,15.2-18,17.1-28c0.3-1.1,0.3-2.4,0.6-3.8
	c0-1.1,0.4-2.3,0.4-3.6v-0.9c0-1.1,0.2-2.1,0.2-3.5c1.2-10.9,7.1-22.1,17.4-27.3l48,48l-8.3,3.5l-16.5,6.8
	c-5.4,2.9-15.8,4.1-14.7,11.1l9.2,34.1l-46.3,60.6l1.2,0.9c10.8-7.9,20.6-16.4,29.8-25.5c10.6-10.1,20.4-20.9,30-32
	c-1.8-11.4-4.5-22.9-7.3-34.2C214.9,201.5,225.7,196.2,236.1,190.4z M261.1,192.1c7.4,0,13.6-6.2,13.6-13.6
	c0-7.6-6.2-13.6-13.6-13.6c-7.6,0-13.6,6.1-13.6,13.6C247.5,185.9,253.5,192.1,261.1,192.1z M261.1,117.1v21.2
	c22.1,0,40.1,18,40.1,40.1h21.2C322.4,144.6,294.9,117.1,261.1,117.1z M261.1,68.4v21.2c49,0,88.9,39.9,88.9,88.9h21.2
	C371.1,117.7,321.8,68.4,261.1,68.4z"/>
</svg>
